<svg width="195" height="40" viewBox="0 0 195 40" fill="none" xmlns="http://www.w3.org/2000/svg">
<path d="M34.1422 5.85781C30.3647 2.08031 25.3422 0 20 0C14.6578 0 9.63531 2.08031 5.85781 5.85781C2.08031 9.63531 0 14.6578 0 20C0 25.3422 2.08039 30.3646 5.85781 34.1422C9.63523 37.9198 14.6578 40 20 40C25.3422 40 30.3647 37.9197 34.1422 34.1422C37.9197 30.3647 40 25.3422 40 20C40 14.6578 37.9196 9.63539 34.1422 5.85781Z" fill="#33CC95"/>
<path d="M65.968 13.644V16.13H61.876V29H58.796V16.13H54.704V13.644H65.968ZM67.4233 22.862C67.4233 21.63 67.6653 20.5373 68.1493 19.584C68.6479 18.6307 69.3153 17.8973 70.1513 17.384C71.0019 16.8707 71.9479 16.614 72.9893 16.614C73.8986 16.614 74.6906 16.7973 75.3653 17.164C76.0546 17.5307 76.6046 17.9927 77.0153 18.55V16.812H80.1173V29H77.0153V27.218C76.6193 27.79 76.0693 28.2667 75.3653 28.648C74.6759 29.0147 73.8766 29.198 72.9673 29.198C71.9406 29.198 71.0019 28.934 70.1513 28.406C69.3153 27.878 68.6479 27.1373 68.1493 26.184C67.6653 25.216 67.4233 24.1087 67.4233 22.862ZM77.0153 22.906C77.0153 22.158 76.8686 21.52 76.5753 20.992C76.2819 20.4493 75.8859 20.0387 75.3873 19.76C74.8886 19.4667 74.3533 19.32 73.7813 19.32C73.2093 19.32 72.6813 19.4593 72.1973 19.738C71.7133 20.0167 71.3173 20.4273 71.0093 20.97C70.7159 21.498 70.5693 22.1287 70.5693 22.862C70.5693 23.5953 70.7159 24.2407 71.0093 24.798C71.3173 25.3407 71.7133 25.7587 72.1973 26.052C72.6959 26.3453 73.2239 26.492 73.7813 26.492C74.3533 26.492 74.8886 26.3527 75.3873 26.074C75.8859 25.7807 76.2819 25.37 76.5753 24.842C76.8686 24.2993 77.0153 23.654 77.0153 22.906ZM90.3414 29L86.2054 23.808V29H83.1254V12.72H86.2054V21.982L90.2974 16.812H94.3014L88.9334 22.928L94.3454 29H90.3414ZM107.303 22.642C107.303 23.082 107.274 23.478 107.215 23.83H98.3051C98.3784 24.71 98.6864 25.3993 99.2291 25.898C99.7717 26.3967 100.439 26.646 101.231 26.646C102.375 26.646 103.189 26.1547 103.673 25.172H106.995C106.643 26.3453 105.968 27.3133 104.971 28.076C103.974 28.824 102.749 29.198 101.297 29.198C100.124 29.198 99.0677 28.9413 98.1291 28.428C97.2051 27.9 96.4791 27.1593 95.9511 26.206C95.4377 25.2527 95.1811 24.1527 95.1811 22.906C95.1811 21.6447 95.4377 20.5373 95.9511 19.584C96.4644 18.6307 97.1831 17.8973 98.1071 17.384C99.0311 16.8707 100.094 16.614 101.297 16.614C102.456 16.614 103.49 16.8633 104.399 17.362C105.323 17.8607 106.034 18.572 106.533 19.496C107.046 20.4053 107.303 21.454 107.303 22.642ZM104.113 21.762C104.098 20.97 103.812 20.3393 103.255 19.87C102.698 19.386 102.016 19.144 101.209 19.144C100.446 19.144 99.8011 19.3787 99.2731 19.848C98.7597 20.3027 98.4444 20.9407 98.3271 21.762H104.113ZM114.045 21.3C114.045 19.7893 114.383 18.44 115.057 17.252C115.747 16.0493 116.678 15.118 117.851 14.458C119.039 13.7833 120.367 13.446 121.833 13.446C123.549 13.446 125.053 13.886 126.343 14.766C127.634 15.646 128.536 16.8633 129.049 18.418H125.507C125.155 17.6847 124.657 17.1347 124.011 16.768C123.381 16.4013 122.647 16.218 121.811 16.218C120.917 16.218 120.117 16.4307 119.413 16.856C118.724 17.2667 118.181 17.8533 117.785 18.616C117.404 19.3787 117.213 20.2733 117.213 21.3C117.213 22.312 117.404 23.2067 117.785 23.984C118.181 24.7467 118.724 25.3407 119.413 25.766C120.117 26.1767 120.917 26.382 121.811 26.382C122.647 26.382 123.381 26.1987 124.011 25.832C124.657 25.4507 125.155 24.8933 125.507 24.16H129.049C128.536 25.7293 127.634 26.954 126.343 27.834C125.067 28.6993 123.564 29.132 121.833 29.132C120.367 29.132 119.039 28.802 117.851 28.142C116.678 27.4673 115.747 26.536 115.057 25.348C114.383 24.16 114.045 22.8107 114.045 21.3ZM137.092 29.198C135.919 29.198 134.863 28.9413 133.924 28.428C132.985 27.9 132.245 27.1593 131.702 26.206C131.174 25.2527 130.91 24.1527 130.91 22.906C130.91 21.6593 131.181 20.5593 131.724 19.606C132.281 18.6527 133.037 17.9193 133.99 17.406C134.943 16.878 136.007 16.614 137.18 16.614C138.353 16.614 139.417 16.878 140.37 17.406C141.323 17.9193 142.071 18.6527 142.614 19.606C143.171 20.5593 143.45 21.6593 143.45 22.906C143.45 24.1527 143.164 25.2527 142.592 26.206C142.035 27.1593 141.272 27.9 140.304 28.428C139.351 28.9413 138.28 29.198 137.092 29.198ZM137.092 26.514C137.649 26.514 138.17 26.382 138.654 26.118C139.153 25.8393 139.549 25.4287 139.842 24.886C140.135 24.3433 140.282 23.6833 140.282 22.906C140.282 21.7473 139.974 20.86 139.358 20.244C138.757 19.6133 138.016 19.298 137.136 19.298C136.256 19.298 135.515 19.6133 134.914 20.244C134.327 20.86 134.034 21.7473 134.034 22.906C134.034 24.0647 134.32 24.9593 134.892 25.59C135.479 26.206 136.212 26.514 137.092 26.514ZM152.463 16.636C153.915 16.636 155.089 17.098 155.983 18.022C156.878 18.9313 157.325 20.2073 157.325 21.85V29H154.245V22.268C154.245 21.3 154.003 20.5593 153.519 20.046C153.035 19.518 152.375 19.254 151.539 19.254C150.689 19.254 150.014 19.518 149.515 20.046C149.031 20.5593 148.789 21.3 148.789 22.268V29H145.709V16.812H148.789V18.33C149.2 17.802 149.721 17.3913 150.351 17.098C150.997 16.79 151.701 16.636 152.463 16.636ZM163.84 19.342V25.238C163.84 25.6487 163.936 25.9493 164.126 26.14C164.332 26.316 164.669 26.404 165.138 26.404H166.568V29H164.632C162.036 29 160.738 27.7387 160.738 25.216V19.342H159.286V16.812H160.738V13.798H163.84V16.812H166.568V19.342H163.84ZM171.864 18.704C172.26 18.0587 172.773 17.5527 173.404 17.186C174.049 16.8193 174.782 16.636 175.604 16.636V19.87H174.79C173.822 19.87 173.088 20.0973 172.59 20.552C172.106 21.0067 171.864 21.7987 171.864 22.928V29H168.784V16.812H171.864V18.704ZM183.09 29.198C181.917 29.198 180.861 28.9413 179.922 28.428C178.983 27.9 178.243 27.1593 177.7 26.206C177.172 25.2527 176.908 24.1527 176.908 22.906C176.908 21.6593 177.179 20.5593 177.722 19.606C178.279 18.6527 179.035 17.9193 179.988 17.406C180.941 16.878 182.005 16.614 183.178 16.614C184.351 16.614 185.415 16.878 186.368 17.406C187.321 17.9193 188.069 18.6527 188.612 19.606C189.169 20.5593 189.448 21.6593 189.448 22.906C189.448 24.1527 189.162 25.2527 188.59 26.206C188.033 27.1593 187.27 27.9 186.302 28.428C185.349 28.9413 184.278 29.198 183.09 29.198ZM183.09 26.514C183.647 26.514 184.168 26.382 184.652 26.118C185.151 25.8393 185.547 25.4287 185.84 24.886C186.133 24.3433 186.28 23.6833 186.28 22.906C186.28 21.7473 185.972 20.86 185.356 20.244C184.755 19.6133 184.014 19.298 183.134 19.298C182.254 19.298 181.513 19.6133 180.912 20.244C180.325 20.86 180.032 21.7473 180.032 22.906C180.032 24.0647 180.318 24.9593 180.89 25.59C181.477 26.206 182.21 26.514 183.09 26.514ZM194.787 12.72V29H191.707V12.72H194.787Z" fill="white"/>
<path d="M20.5714 8V33.1429" stroke="white" stroke-width="2" stroke-linecap="round" stroke-linejoin="round"/>
<path d="M26.2857 12.5714H17.7143C16.6534 12.5714 15.636 12.9929 14.8859 13.743C14.1357 14.4931 13.7143 15.5106 13.7143 16.5714C13.7143 17.6323 14.1357 18.6497 14.8859 19.3999C15.636 20.15 16.6534 20.5714 17.7143 20.5714H23.4286C24.4894 20.5714 25.5069 20.9929 26.257 21.743C27.0072 22.4932 27.4286 23.5106 27.4286 24.5714C27.4286 25.6323 27.0072 26.6497 26.257 27.3999C25.5069 28.15 24.4894 28.5714 23.4286 28.5714H13.7143" stroke="white" stroke-width="2" stroke-linecap="round" stroke-linejoin="round"/>
</svg>
